<svg width="1024" height="1024" viewBox="0 0 1024 1024" fill="none" xmlns="http://www.w3.org/2000/svg">
<g clip-path="url(#clip0_8_8)">
<path d="M844.351 0H179.649C80.4316 0 0 80.4316 0 179.649V844.351C0 943.568 80.4316 1024 179.649 1024H844.351C943.568 1024 1024 943.568 1024 844.351V179.649C1024 80.4316 943.568 0 844.351 0Z" fill="black"/>
<path d="M573.838 461.159L815.815 180H758.475L548.366 424.126L380.553 180H187L440.767 549.162L187 844H244.344L466.224 586.195L643.447 844H837L573.824 461.159H573.838ZM495.298 552.414L469.586 515.654L265.006 223.149H353.083L518.182 459.21L543.893 495.97L758.502 802.813H670.425L495.298 552.428V552.414Z" fill="white"/>
</g>
<defs>
<clipPath id="clip0_8_8">
<rect width="1024" height="1024" fill="white"/>
</clipPath>
</defs>
</svg>
